<svg id="Layer_3" enable-background="new 0 0 64 64" height="512" viewBox="0 0 64 64" width="512" xmlns="http://www.w3.org/2000/svg"><g><path d="m20 11v-7c0-1.105.895-2 2-2 1.105 0 2 .895 2 2v7" fill="#976947"/><path d="m21.466 2.081c-.843.235-1.466 1-1.466 1.919v7h2.447c.032-.531.053-1.064.053-1.602 0-2.54-.366-4.992-1.034-7.317z" fill="#c18e59"/><path d="m9 20c0-5.523 5.82-10 13-10s13 4.477 13 10" fill="#cbc3b6"/><path d="m22.484 10.019c-.162-.005-.321-.019-.484-.019-7.18 0-13 4.477-13 10h11.283c1.343-3.067 2.119-6.438 2.201-9.981z" fill="#d5cec2"/><g><path d="m53.5 60.998c-5.239 0-9.501-4.261-9.501-9.498v-4.502c0-1.653-1.347-3-3-3h-8v-1.999h8c2.757 0 5 2.242 5 4.999v4.502c0 4.135 3.364 7.498 7.499 7.498 4.136 0 7.5-3.363 7.5-7.498v-6.502c0-3.859-3.14-6.999-6.998-6.999-4.964 0-9.001-4.037-9.001-8.999v-4.001h2v4.001c0 3.858 3.14 6.999 6.999 6.999 4.963 0 9 4.037 9 8.999v6.502c0 5.237-4.261 9.498-9.498 9.498z" fill="#d5cec2"/></g><path d="m20 49v9l2 4 2-4v-9" fill="#d5cec2"/><path d="m21 60 1-2v-9h-2v9z" fill="#e7e4dd"/><path d="m39 30h-34c-1.657 0-3-1.343-3-3 0-1.657 1.343-3 3-3h34c1.657 0 3 1.343 3 3 0 1.657-1.343 3-3 3z" fill="#f2c351"/><path d="m39 30c0 11.046-7.611 20-17 20s-17-8.954-17-20" fill="#669e4f"/><path d="m37 24h-30c-1.105 0-2-.895-2-2 0-1.105.895-2 2-2h30c1.105 0 2 .895 2 2 0 1.105-.895 2-2 2z" fill="#c16b3f"/><g><path d="m32.999 19.998h-2c0-3.308-4.037-5.999-8.999-5.999v-2c6.064 0 10.999 3.588 10.999 7.999z" fill="#e7e4dd"/></g><g fill="#e7e4dd"><path d="m37.272 30.521c-9.863 3.29-20.681 3.29-30.546 0l-1.317-.435-.191-.086h-.218c0 .704.033 1.399.093 2.084l1.001.334c5.135 1.712 10.487 2.581 15.906 2.581 5.417 0 10.769-.869 15.905-2.581l1.002-.335c.061-.685.093-1.379.093-2.083h-.184l-.133.05z"/><path d="m38.104 34.243-.832.277c-9.865 3.29-20.682 3.29-30.547 0l-.761-.25-.622-.262c.139.801.33 1.578.547 2.341l.204.068c5.136 1.712 10.487 2.58 15.905 2.58s10.77-.868 15.905-2.58l.207-.069c.216-.759.407-1.531.545-2.327z"/><path d="m7.777 40.937c4.62 1.363 9.399 2.061 14.223 2.061 4.818 0 9.59-.697 14.224-2.063.436-.784.819-1.61 1.159-2.465l-.818.28c-9.436 2.984-19.751 2.966-29.079.019l-.885-.337c.344.869.732 1.709 1.176 2.505z"/><path d="m33.369 43.642c-7.434 1.801-15.349 1.789-22.694.013l-1.385-.405c.74.982 1.56 1.875 2.449 2.669 3.373.703 6.813 1.079 10.261 1.079 3.438 0 6.872-.375 10.265-1.082.887-.793 1.704-1.683 2.442-2.662z"/></g><path d="m20.283 20h-13.283c-1.105 0-2 .895-2 2s.895 2 2 2h11.102c.837-1.261 1.567-2.599 2.181-4z" fill="#e39854"/><path d="m5 24c-1.657 0-3 1.343-3 3s1.343 3 3 3h7.632c2.116-1.706 3.964-3.729 5.47-6z" fill="#f7d881"/><path d="m53.998 36c-3.859 0-6.999-3.141-6.999-7v-4h-2v4c0 4.962 4.037 9 9.001 9 3.858 0 6.998 3.14 6.998 6.998v6.501c0 4.136-3.364 7.5-7.5 7.5-4.135 0-7.499-3.364-7.499-7.5v-4.5c0-2.757-2.243-4.999-5-4.999l-4.249-.001c1.907-3.181 3.066-7.003 3.212-11.131 1.74-.434 3.038-1.997 3.038-3.869 0-1.935-1.381-3.552-3.209-3.92.131-.336.209-.698.209-1.08 0-1.654-1.346-3-3-3h-1.064c-.556-4.806-5.058-8.726-10.936-9.739l-.002-5.261c0-1.654-1.346-3-2.999-3-1.654 0-3 1.346-3 3l.001 5.261c-5.878 1.013-10.381 4.933-10.935 9.739h-1.067c-1.653 0-2.998 1.346-2.998 3.001 0 .381.078.743.209 1.079-1.828.368-3.209 1.985-3.209 3.921 0 1.871 1.298 3.435 3.038 3.868.353 9.992 6.703 18.187 14.962 19.814v7.316c0 .155.036.309.105.447l2 4c.169.339.516.553.895.553.378 0 .725-.214.894-.553l2-4c.069-.139.105-.292.105-.447v-7.316c4.095-.806 7.717-3.225 10.379-6.684l5.621.001c1.653 0 3 1.347 3 3v4.5c0 5.239 4.262 9.5 9.501 9.5 5.237 0 9.498-4.261 9.498-9.5v-6.501c0-4.962-4.037-8.998-9-8.998zm-20.952 7.71c-7.232 1.699-14.863 1.699-22.093 0-.643-.731-1.23-1.528-1.764-2.377 4.178 1.101 8.476 1.665 12.811 1.667 4.334-.002 8.632-.567 12.811-1.668-.534.849-1.121 1.646-1.765 2.378zm-2.892 2.606c-2.392 1.692-5.174 2.682-8.154 2.682-2.981 0-5.763-.99-8.155-2.682 2.694.442 5.422.683 8.155.684 2.732-.001 5.46-.242 8.154-.684zm-24.007-13.882c5.122 1.701 10.455 2.565 15.853 2.565 5.397 0 10.73-.863 15.852-2.565-.074.678-.179 1.343-.311 1.997l-.269.09c-9.87 3.29-20.679 3.29-30.547 0l-.268-.089c-.132-.655-.237-1.32-.31-1.998zm2.116-1.436h27.473c-8.931 2.646-18.539 2.646-27.473 0zm13.737 8.002c5.08 0 10.103-.775 14.947-2.284-.237.742-.502 1.467-.812 2.161-9.172 2.806-19.099 2.806-28.27 0-.31-.694-.575-1.419-.813-2.161 4.844 1.509 9.866 2.284 14.948 2.284zm-1.001-35.001c0-.552.448-1 1.001-1 .551 0 .998.448.998 1l.002 5.04c-.332-.019-.662-.04-1-.04s-.669.021-1 .04zm1.001 7c6.166 0 11.255 3.507 11.921 8h-1.017c-.679-3.94-5.305-7-10.904-7v2c4.45 0 8.147 2.167 8.864 5h-20.786c.666-4.493 5.756-8 11.922-8zm-15.002 10h30.001c.552 0 1 .448 1 1.001 0 .551-.448.998-1 .998h-30.001c-.551 0-.998-.448-.998-.999 0-.552.447-1 .998-1zm-3.998 6c0-1.104.896-2 1.998-2h34.001c1.104 0 2 .897 2 2.001 0 1.102-.896 1.998-2 1.998h-34.001c-1.102 0-1.998-.896-1.998-1.999zm19.999 30.764-.999 2-1-2v-6.824c.333.021.662.059 1 .059.337 0 .666-.038.999-.059z"/></g></svg>